<svg width="43" height="44" viewBox="0 0 43 44" fill="none" xmlns="http://www.w3.org/2000/svg">
<path d="M34.3734 32.9382C36.1819 35.7855 37.0341 37.2973 37.0341 38.8741C37.0341 41.9883 34.7212 43.4982 31.6053 43.4982C30.2318 43.4982 29.3452 43.4965 27.1045 42.3308C27.1045 42.3308 25.6526 41.0022 22.255 41.1386C18.8257 41.0031 17.3729 42.3475 17.3729 42.3475C15.1322 43.5123 14.2773 43.5 12.9056 43.5C9.78967 43.5 7.47498 41.9918 7.47498 38.8759C7.47498 37.299 8.32989 35.7891 10.1374 32.94C10.1374 32.94 13.5544 27.2655 16.5154 24.596C18.6549 22.6696 21.7743 22.6766 21.7743 22.6766H22.7366C22.7366 22.6766 25.9925 22.6678 27.9981 24.596C30.8675 27.3623 34.3734 32.9391 34.3734 32.9382ZM14.6427 18.8819C17.9003 18.8819 20.5408 14.7667 20.5408 9.69095C20.5408 4.61519 17.9003 0.5 14.6427 0.5C11.385 0.5 8.74458 4.61519 8.74458 9.69095C8.74458 14.7667 11.385 18.8819 14.6427 18.8819ZM8.99022 27.7832C11.3912 26.6747 11.9388 22.7444 10.2123 19.0043C8.48573 15.2642 5.14004 13.13 2.73907 14.2376C0.338099 15.3452 -0.208657 19.2763 1.51701 23.0165C3.24356 26.7566 6.58925 28.8899 8.99022 27.7832ZM28.3556 18.8819C31.6132 18.8819 34.2546 14.7667 34.2546 9.69095C34.2546 4.61519 31.6132 0.5 28.3556 0.5C25.0979 0.5 22.4575 4.61519 22.4575 9.69095C22.4575 14.7667 25.0979 18.8819 28.3556 18.8819ZM40.2601 14.2367C37.8582 13.1282 34.5134 15.2624 32.7869 19.0034C31.0603 22.7444 31.6079 26.6747 34.0098 27.7832C36.4116 28.8908 39.7565 26.7566 41.483 23.0165C43.2096 19.2763 42.6619 15.3452 40.2601 14.2367Z" fill="#4F46E5"/>
</svg>
